<?xml version="1.0" encoding="utf-8"?>
<!-- Generator: Adobe Illustrator 26.3.1, SVG Export Plug-In . SVG Version: 6.00 Build 0)  -->
<svg version="1.1" id="Camada_1" xmlns="http://www.w3.org/2000/svg" xmlns:xlink="http://www.w3.org/1999/xlink" x="0px" y="0px"
	 viewBox="0 0 819 250" style="enable-background:new 0 0 819 250;" xml:space="preserve">
<style type="text/css">
	.st0{fill-rule:evenodd;clip-rule:evenodd;fill:#2C256B;}
	.st1{fill-rule:evenodd;clip-rule:evenodd;fill:#007B38;}
	.st2{fill:#050507;}
	.st3{fill:#00AECA;}
</style>
<g>
	<g>
		<g>
			<path class="st0" d="M625.21,111.25l-26.75-61.1h22.28l11.5,30.3c0.73,1.88,1.41,4.06,1.91,6.51c0.5,2.45,0.89,5.18,1.15,8.2
				c0.44-2.42,1.02-4.92,1.7-7.42c0.65-2.53,1.52-5.21,2.48-8.04l10.11-29.55h22.08l-35.64,96.33H614.7L625.21,111.25L625.21,111.25
				z"/>
			<path class="st0" d="M625.21,111.25L625.21,111.25L625.21,111.25z"/>
			<path class="st0" d="M568.8,67.15c1.93-6.46,4.7-11.25,8.33-14.45c3.66-3.2,8.15-4.82,13.53-4.82c1.2,0,3.21,0.26,6.01,0.7
				c0.55,0.08,0.94,0.16,1.23,0.21l-2.93,20.67c-1.41-0.6-2.87-1.04-4.36-1.35c-1.44-0.29-3-0.44-4.62-0.44
				c-5.88,0-10.09,1.51-12.67,4.5c-2.56,2.99-3.84,7.99-3.84,15.02v29.18h-19.31V50.15h19.02L568.8,67.15L568.8,67.15z"/>
			<path class="st0" d="M568.8,67.15L568.8,67.15L568.8,67.15z"/>
			<path class="st0" d="M547.3,88L547.3,88L547.3,88z"/>
			<path class="st0" d="M528.2,76.39L528.2,76.39L528.2,76.39z"/>
			<path class="st0" d="M428.53,50.15v34.81c0,5.86,1.12,10.05,3.42,12.55c2.27,2.53,5.98,3.78,11.13,3.78
				c5.12,0,8.83-1.25,11.13-3.8c2.3-2.53,3.45-6.72,3.45-12.52V50.15h19.28v34.81c0,11.66-2.72,20.25-8.2,25.75
				c-5.46,5.52-13.9,8.3-25.37,8.3c-11.7,0-20.3-2.73-25.79-8.25c-5.46-5.49-8.23-14.08-8.23-25.8V50.15H428.53L428.53,50.15z"/>
			<path class="st0" d="M428.53,50.15L428.53,50.15L428.53,50.15z"/>
			<path class="st1" d="M227.16,146.47V50.12h18.5v10.93c2.51-4.4,5.64-7.71,9.3-9.89c3.71-2.19,7.99-3.25,12.85-3.25
				c9.43,0,16.82,3.12,22.15,9.35c5.33,6.22,7.99,14.92,7.99,26.09c0,10.78-2.69,19.37-8.07,25.9c-5.36,6.48-12.44,9.74-21.19,9.74
				c-5.28,0-9.77-0.96-13.48-2.92c-3.68-1.95-6.82-5.05-9.43-9.22c0.21,1.64,0.39,3.46,0.5,5.44c0.13,1.95,0.18,4.19,0.18,6.69
				v27.49H227.16L227.16,146.47z M227.16,146.47L227.16,146.47L227.16,146.47z M244.77,83.13c0,5.99,1.49,10.65,4.44,13.98
				c2.95,3.36,7.08,5,12.36,5c5.3,0,9.4-1.64,12.38-5c2.95-3.33,4.44-7.99,4.44-13.98c0-6.01-1.52-10.7-4.52-14.16
				c-3-3.44-7.13-5.15-12.41-5.15c-5.15,0-9.2,1.74-12.17,5.21C246.28,72.48,244.77,77.17,244.77,83.13L244.77,83.13z M244.77,83.13
				L244.77,83.13L244.77,83.13z M225.12,17.55v61.44c0,13.43-3.53,23.46-10.63,30.07c-7.08,6.61-17.74,9.92-32.03,9.92
				c-14.53,0-25.29-3.31-32.37-9.92c-7.11-6.61-10.63-16.64-10.63-30.07V17.55h21.06v58.16c0,8.15,1.78,14.27,5.41,18.41
				c3.61,4.11,9.01,6.17,16.22,6.17c7.21,0,12.7-2.08,16.38-6.2c3.71-4.14,5.54-10.28,5.54-18.38V17.55H225.12L225.12,17.55z"/>
			<g>
				<path class="st0" d="M384.96,74.02c0.42-2.24,0.65-4.53,0.65-6.87c0-9.35-2.98-17.23-8.88-23.64
					c-5.93-6.38-13.3-9.58-22.15-9.58c-8.99,0-16.43,3.18-22.34,9.55c-5.93,6.4-8.88,14.27-8.88,23.66c0,9.5,2.93,17.36,8.73,23.64
					c3.14,3.38,6.74,5.86,10.82,7.42l-0.44,19.19c-2.8-0.63-5.56-1.51-8.33-2.63c-6.53-2.68-12.25-6.35-17.11-11.09
					c-5.02-4.84-8.86-10.44-11.57-16.79c-2.66-6.3-4-12.94-4-19.86s1.33-13.51,4-19.84c2.64-6.27,6.5-11.9,11.57-16.84
					c4.91-4.84,10.61-8.56,17.09-11.17c6.48-2.58,13.3-3.85,20.48-3.85c7.05,0,13.82,1.28,20.25,3.85
					c6.45,2.6,12.2,6.33,17.22,11.17c5.02,4.92,8.83,10.52,11.5,16.74c2.66,6.3,4,12.94,4,19.94c0,4.97-0.65,9.74-1.99,14.27
					c-0.91-0.86-2.01-1.59-3.21-2.08l0.03-0.08l-1.25-0.36l0,0l-0.03-0.03L384.96,74.02L384.96,74.02z"/>
				<path class="st1" d="M402.49,125.49l0.39,0.55v0.03c2.74,4.48,1.57,10.41-2.8,13.51c-4.39,3.1-10.4,2.21-13.74-1.87l0,0
					l-19.86-27.99l-0.23,9.89l-0.03,1.07h-0.08c-0.63,4.58-4.62,8.04-9.38,7.94c-4.73-0.13-8.57-3.77-8.99-8.36h-0.05v-1.09
					l0.91-37.83v-0.03l0,0l0,0v-0.03v-0.03l0,0v-0.03l0,0v-0.03v-0.03l0,0v-0.03v-0.03V81.1l0,0v-0.03l0,0v-0.03l0,0v-0.03l0,0
					v-0.08v-0.03l0,0l0,0v-0.03v-0.03l0,0v-0.03v-0.03l0,0v-0.03v-0.03v-0.03l0.03-0.03h-0.03l0,0l0.03-0.03v-0.03l0,0v-0.03l0,0
					v-0.03l0,0v-0.03v-0.03l0,0v-0.03V80.5l0,0v-0.05l0,0l0.03-0.03V80.4l0,0l0,0l0,0v-0.03v-0.03l0,0v-0.03v-0.03l0,0v-0.03l0,0
					v-0.03v-0.03c0.08-0.6,0.24-1.2,0.42-1.8l0.03-0.03v-0.03v-0.03l0.03-0.03l0.03-0.08v-0.03l0.03-0.03v-0.03v-0.03l0.03-0.03
					l0.03-0.05l0,0v-0.03V78l0.03-0.03v-0.03l0.03-0.03V77.9v-0.03l0.03-0.03l0,0v-0.03l0.03-0.03v-0.03l0.03-0.03v-0.03v-0.03
					l0.03-0.03l0.08-0.16v-0.03v-0.03l0.03-0.03V77.4l0.05-0.1l0,0l0.03-0.03v-0.03l0.03-0.03l0,0l0.03-0.05l0.03-0.05v-0.03
					l0.03-0.03v-0.03l0.08-0.13l0.03-0.05l0.05-0.05v-0.03l0.03-0.05l0.03-0.05l0.03-0.03l0.03-0.05l0.03-0.05l0.03-0.03l0.05-0.1
					l0.03-0.03l0.03-0.05l0.05-0.05l0,0l0.03-0.03l0.03-0.05l0.03-0.05l0.03-0.03l0.03-0.03v-0.03l0.03-0.05l0.05-0.03l0.03-0.05
					l0.03-0.03v-0.03l0.03-0.03l0.03-0.05l0.03-0.03l0.05-0.05l0,0l0.03-0.03l0.03-0.05l0.03-0.03l0.05-0.05l0.03-0.03l0.03-0.05
					l0.03-0.05l0.05-0.03l0.03-0.03v-0.03l0.03-0.03l0.03-0.03l0.05-0.05l0.03-0.03l0.03-0.03v-0.03l0.05-0.03l0.03-0.05l0.03-0.03
					l0,0l0.03-0.03l0.03-0.03l0.03-0.03l0,0l0.08-0.08l0.03-0.03l0.03-0.03l0,0l0.08-0.08l0.03-0.05l0.05-0.03l0,0l0.03-0.03
					c0.57-0.52,1.18-0.96,1.83-1.33l0.03-0.03l0.16-0.1l0,0h0.05l0.03-0.03l0.05-0.03l0.05-0.03l0.03-0.03h0.03l0.05-0.03l0,0
					l0.03-0.03h0.03l0.03-0.03h0.05l0.03-0.03l0.05-0.03l0,0h0.03l0.03-0.03l0.05-0.03l0.05-0.03h0.05l0,0
					c0.29-0.13,0.57-0.23,0.86-0.34l0,0c0.13-0.03,0.29-0.08,0.42-0.1l0.18-0.05l0.03-0.03h0.03h0.08l0.05-0.03h0.05l0.03-0.03h0.05
					h0.05l0.05-0.03h0.05h0.03l0.13-0.03l0.1-0.03l0.1-0.03h0.03h0.1h0.03l0.03-0.03h0.21l0,0l0,0l0,0l0.03-0.03H357h0.03h0.1h0.03
					h0.03h0.03l0.05-0.03h0.03l0,0h0.03h0.03h0.05h0.03h0.03h0.13h0.03h0.05h0.03h0.03h0.03h0.03h0.03h0.03h0.03h0.05h0.03l0,0h0.03
					h0.08h0.03h0.03h0.05h0.03h0.03h0.03h0.05h0.03h0.03h0.03h0.03h0.03h0.03l0,0h0.03h0.03h0.05l0.1,0.03h0.03l0,0h0.03h0.03
					l0.13,0.03h0.05l0,0h0.03c0.47,0.05,0.91,0.13,1.38,0.26l0,0h0.03l0.1,0.03h0.03l0.03,0.03l0,0h0.03h0.03l0.03,0.03h0.05l0,0
					l0.03,0.03h0.03l0,0h0.03l0,0l36.39,10.62l0.03,0.03l0,0l1.04,0.29l-0.03,0.08c4.26,1.8,6.58,6.53,5.25,11.06
					c-1.33,4.53-5.85,7.29-10.42,6.51l-0.03,0.05l-1.05-0.29l0,0l-8.52-2.5C392.48,111.01,393.5,112.81,402.49,125.49L402.49,125.49
					z"/>
			</g>
			<polygon class="st0" points="160.25,17.55 139.45,44.55 139.45,17.55 160.25,17.55 			"/>
			<polygon class="st0" points="227.16,146.63 246.31,119.63 246.31,146.63 227.16,146.63 			"/>
			<path class="st0" d="M538.44,57.33c-6.14-6.27-14.5-9.45-25.05-9.45c-10.27,0-18.68,3.41-25.24,10.1
				c-6.58,6.69-9.88,15.26-9.88,25.64c0,10.81,3.13,19.4,9.43,25.77c6.27,6.4,14.79,9.61,25.55,9.61c7.05,0,13.19-1.41,18.34-4.22
				c5.12-2.84,9.54-7.13,13.14-12.96l-15.6-7.76c-1.7,2.76-3.87,4.79-6.4,6.14c-2.53,1.33-5.59,2.03-9.09,2.03
				c-4.65,0-8.33-1.2-11.05-3.57c-2.69-2.34-4.44-5.91-5.2-10.67h49.9c0.13-1.35,0.23-2.37,0.26-3.07c0.05-0.7,0.08-1.33,0.08-1.93
				C547.64,72.17,544.56,63.61,538.44,57.33z M498,76.39c0.73-4.17,2.38-7.32,4.99-9.48c2.59-2.13,6.03-3.2,10.37-3.2
				c4.34,0,7.76,1.07,10.27,3.2c2.51,2.16,4.05,5.31,4.57,9.48H498z"/>
		</g>
	</g>
	<g>
		<path class="st2" d="M331.7,234.69c-4.83-2.81-5.96-6.32-3.84-11.74c0.49-1.25,1.49-0.7,2.25-0.7
			c10.22-0.04,20.44-0.03,30.66-0.03c4.3,0,4.43-0.1,5.46-4.33c1.16-4.78,1.16-4.78-3.84-4.78c-8.37,0-16.74,0.02-25.11-0.01
			c-6.11-0.02-8.45-2.9-7.19-8.88c2.3-10.97,4.58-21.94,6.97-32.89c1.53-7.03,4.78-9.56,11.92-9.56c13.76,0,27.52,0,41.29,0
			c0.8,0,1.59,0,2.59,0c-1.44,6.85-2.81,13.52-4.24,20.18c-3.01,13.99-6.05,27.97-9.08,41.95c-0.54,2.5-1.38,4.88-2.83,7.04
			c-1.63,2.43-4.3,2.95-6.82,3.75C357.15,234.69,344.42,234.69,331.7,234.69z M375.66,174.22c-7,0-13.76,0-20.51,0
			c-3.63,0-4.32,0.55-5.05,4c-1.37,6.45-2.74,12.91-4.13,19.36c-0.53,2.47-0.1,3.07,2.4,3.08c6.6,0.02,13.2-0.03,19.8,0.03
			c1.35,0.01,1.96-0.3,2.25-1.73C372.07,190.78,373.86,182.63,375.66,174.22z"/>
		<path class="st3" d="M559.25,234.69c-5.01-2.78-6.05-5.89-4.07-11.46c0.5-1.41,1.46-1,2.31-1c10.06-0.03,20.13-0.02,30.19-0.02
			c4.5,0,4.57-0.06,5.63-4.43c1.13-4.68,1.13-4.68-3.64-4.68c-8.13,0-16.26,0-24.39,0c-1.21,0-2.4-0.03-3.59-0.32
			c-3.53-0.87-5.15-3.09-4.6-6.67c1.44-9.39,3.83-18.59,5.69-27.9c0.97-4.85,2.15-9.66,3.07-14.52c0.28-1.47,0.76-2.01,2.3-1.96
			c3.46,0.11,6.92,0.12,10.38,0c1.8-0.06,2.12,0.42,1.73,2.18c-2.46,11.14-4.79,22.31-7.15,33.47c-0.57,2.68-0.07,3.29,2.74,3.3
			c6.36,0.02,12.72-0.04,19.08,0.04c1.56,0.02,2.21-0.4,2.54-2.03c2.37-11.57,4.88-23.1,7.29-34.66c0.34-1.65,0.9-2.42,2.79-2.31
			c3.37,0.19,6.76,0.1,10.14,0.03c1.5-0.03,2.14,0.16,1.74,1.97c-3.95,18-7.8,36.02-11.68,54.04c-0.37,1.72-0.8,3.42-1.09,5.15
			c-1,6-3.39,10.79-10.22,11.78C584.05,234.69,571.65,234.69,559.25,234.69z"/>
		<path class="st3" d="M679.55,162.26c-1.31,3.19-1.64,6.62-2.37,9.94c-0.35,1.58-1,2.03-2.57,2.02
			c-10.87-0.06-21.73-0.04-32.6-0.03c-2.93,0-5.81,5.04-4.33,7.61c0.67,1.16,1.91,1.01,3.03,1.01c8.85,0,17.71-0.01,26.56,0
			c5.7,0.01,7.62,2.25,6.53,7.75c-0.95,4.77-1.94,9.54-3.04,14.28c-1.27,5.45-4.66,8.19-10.31,8.23c-11.75,0.07-23.51,0.07-35.26,0
			c-5.79-0.03-7.77-2.41-7.05-8.12c0.08-0.63,0.2-1.27,0.23-1.9c0.09-1.84,0.9-2.44,2.87-2.42c10.7,0.12,21.41,0.01,32.12,0.09
			c2.36,0.02,3.53-0.85,4.02-3.13c1.26-5.82,2.37-5.97-4.79-5.94c-7.89,0.04-15.78,0.03-23.67,0c-5.76-0.02-7.55-2.2-6.41-7.77
			c0.91-4.46,1.82-8.91,2.81-13.35c1.41-6.32,4.46-8.76,11-8.77c14.41-0.03,28.82-0.01,43.22-0.01
			C679.55,161.94,679.55,162.1,679.55,162.26z"/>
		<path class="st2" d="M296.92,213.11c-7.16,0-14.32,0.01-21.48,0c-5.65-0.01-7.95-2.67-6.9-8.23c0.99-5.23,2.1-10.44,3.35-15.61
			c1.46-6,3.97-7.82,10.25-7.82c9.66,0,19.31-0.05,28.97,0.05c1.66,0.02,2.35-0.4,2.7-2.03c1.09-5.06,1-5.24-4.25-5.24
			c-9.9,0-19.79-0.06-29.69,0.04c-2.24,0.02-3.22-0.16-2.36-2.78c0.84-2.55,1.12-5.28,1.63-7.94c0.23-1.18,0.57-1.84,2.14-1.83
			c13.92,0.1,27.84,0.03,41.76,0.07c5.62,0.02,7.99,2.81,6.87,8.27c-2.83,13.78-5.83,27.53-8.63,41.31
			c-0.34,1.66-1.06,1.76-2.39,1.75C311.56,213.09,304.24,213.11,296.92,213.11z M311.35,190.24c-7.94,0-15.65,0-23.36,0
			c-1.62,0-2.76,0.68-3.08,2.36c-0.38,1.95-0.66,3.92-1.14,5.85c-0.44,1.76,0.26,2.31,1.92,2.3c7.32-0.02,14.63-0.03,21.95,0.02
			c1.24,0.01,1.67-0.49,1.88-1.61C310.05,196.27,310.69,193.41,311.35,190.24z"/>
		<path class="st2" d="M462.01,213.11c-6.11,0-12.23,0.02-18.34-0.01c-5.65-0.03-8.03-2.34-7.1-7.81c1.42-8.38,3.33-16.68,5.06-25
			c0.69-3.35,1.34-6.71,2.2-10.01c1.57-6.01,4.87-8.49,11.08-8.49c12.07-0.02,24.13-0.02,36.2,0c6.16,0.01,8.45,2.48,7.27,8.51
			c-2.25,11.46-4.66,22.9-7.27,34.28c-1.42,6.2-4.8,8.52-11.24,8.53C473.91,213.11,467.96,213.11,462.01,213.11z M465.29,200.66
			c3.54,0,7.07,0.02,10.61-0.01c0.7-0.01,1.51,0.36,1.77-0.94c1.55-7.54,3.21-15.06,4.83-22.59c0.41-1.91-0.32-2.9-2.35-2.89
			c-6.67,0.01-13.34,0.02-20.01-0.01c-1.59-0.01-2.7,0.61-3.03,2.13c-1.6,7.29-3.16,14.59-4.68,21.9c-0.36,1.72,0.43,2.49,2.25,2.45
			C458.22,200.61,461.75,200.66,465.29,200.66z"/>
		<path class="st3" d="M536,161.78c6.6,0,13.2,0,19.8,0c3.04,0,3.05,0,2.47,2.82c-0.52,2.5-1.16,4.98-1.58,7.49
			c-0.28,1.63-0.96,2.16-2.69,2.14c-10.54-0.09-21.09-0.05-31.64-0.05c-3.69,0-6.46,3.78-5.32,7.27c0.5,1.52,1.83,1.35,3.01,1.36
			c8.69,0.02,17.39,0.01,26.08,0.01c0.8,0,1.61-0.02,2.41,0.04c3.49,0.27,5.29,2.21,4.99,5.69c-0.4,4.54-1.69,8.93-2.66,13.37
			c-2.1,9.52-4.29,11.18-14.19,11.18c-10.3,0-20.61-0.01-30.91,0.01c-1.37,0-2.73-0.08-4.06-0.42c-3-0.77-4.32-2.41-4.34-5.48
			c-0.05-6.17,0.29-6.52,6.43-6.52c9.66,0,19.32-0.08,28.98,0.05c2.56,0.04,3.6-1.04,4.16-3.29c1.43-5.79,1.47-5.78-4.49-5.78
			c-7.73,0-15.46,0-23.18,0c-0.88,0-1.77,0-2.65-0.08c-3.57-0.31-5.31-2.14-4.86-5.7c0.47-3.71,1.38-7.36,2.11-11.04
			c0.26-1.33,0.56-2.65,0.83-3.98c1.28-6.35,4.5-9.04,11.03-9.09C522.47,161.74,529.23,161.78,536,161.78z"/>
		<path class="st2" d="M438.31,161.77c-0.78,3.68-1.61,7.17-2.23,10.68c-0.25,1.39-0.78,1.81-2.19,1.79
			c-6.04-0.07-12.07-0.03-18.11-0.03c-3.45,0-3.96,0.36-4.66,3.76c-2.2,10.75-4.37,21.5-6.48,32.26c-0.39,1.97-0.85,3.41-3.4,2.91
			c-1.32-0.26-2.73-0.02-4.09-0.07c-4.71-0.2-7.12-3.03-6.22-7.61c1.52-7.8,3.2-15.57,4.84-23.35c0.84-3.97,1.6-7.96,2.63-11.88
			c1.58-6.04,4.83-8.45,11.09-8.46c8.85-0.01,17.71,0,26.56,0C436.75,161.77,437.47,161.77,438.31,161.77z"/>
	</g>
</g>
</svg>
