<?xml version="1.0" ?><svg viewBox="0 0 18.498 22.202" xmlns="http://www.w3.org/2000/svg"><g data-name="Layer 2" id="Layer_2"><g data-name="Layer 1" id="Layer_1-2"><path d="M15.811,2.75c-9-8.324-21.384,4.063-13.06,13.061L9.044,22.1a.336.336,0,0,0,.474,0l6.293-6.294A9.278,9.278,0,0,0,15.811,2.75Zm-.475,12.586L9.281,21.392,3.226,15.336C-2.159,10.059,1.744.641,9.281.717,16.818.641,20.721,10.06,15.336,15.336ZM9.281,2.679a6.609,6.609,0,0,0-6.6,6.6c.332,8.746,12.873,8.744,13.2,0A6.609,6.609,0,0,0,9.281,2.679Zm0,12.532A5.938,5.938,0,0,1,3.35,9.281c.279-7.85,11.584-7.848,11.862,0A5.938,5.938,0,0,1,9.281,15.211Zm3.913-5.14-1.435.861.424.235a3.465,3.465,0,0,1-2.566,1.56V9.169h1.919a.336.336,0,1,0,0-.671H9.617V7.779a1.34,1.34,0,1,0-.672,0V8.5H7.06a.336.336,0,1,0,0,.671H8.945v3.558A3.475,3.475,0,0,1,6.413,11.22l.42-.243-1.451-.835,0,1.674.448-.259a4.153,4.153,0,0,0,6.938-.064l.453.251ZM8.61,6.484a.671.671,0,0,1,1.342,0A.671.671,0,0,1,8.61,6.484Z" id="port"/></g></g></svg>