<?xml version="1.0" encoding="utf-8"?>
<!-- Generator: Adobe Illustrator 26.3.1, SVG Export Plug-In . SVG Version: 6.00 Build 0)  -->
<svg version="1.1" id="Camada_1" xmlns="http://www.w3.org/2000/svg" xmlns:xlink="http://www.w3.org/1999/xlink" x="0px" y="0px"
	 viewBox="0 0 18 18" style="enable-background:new 0 0 18 18;" xml:space="preserve">
<style type="text/css">
	.st0{fill:#474747;}
</style>
<path class="st0" d="M18,9c0-4.97-4.03-9-9-9S0,4.03,0,9s4.03,9,9,9S18,13.97,18,9z M1.2,9c0-4.31,3.49-7.8,7.8-7.8
	s7.8,3.49,7.8,7.8s-3.49,7.8-7.8,7.8S1.2,13.31,1.2,9z"/>
<path class="st0" d="M10.67,13.06l3.19-3.68c0.19-0.22,0.19-0.54,0-0.76l-3.19-3.68c-0.35-0.4-1.02-0.16-1.02,0.38v0.45
	c0,0.32-0.26,0.58-0.58,0.58h-3.5C5.26,6.35,5,6.61,5,6.93v4.14c0,0.32,0.26,0.58,0.58,0.58h3.5c0.32,0,0.58,0.26,0.58,0.58v0.45
	C9.66,13.22,10.32,13.46,10.67,13.06z"/>
</svg>
