<svg version="1.1" id="Camada_1" xmlns="http://www.w3.org/2000/svg" xmlns:xlink="http://www.w3.org/1999/xlink" x="0px" y="0px" viewBox="0 0 560.1 454.2" style="enable-background:new 0 0 560.1 454.2;" xml:space="preserve"><circle cx="396.5" cy="157.3" r="58.5"/><circle cx="282.5" cy="275.3" r="37.5"/><circle cx="240" cy="155.8" r="67"/><circle cx="387" cy="272.3" r="21.5"/><circle cx="188.5" cy="312.3" r="19.5"/><polygon points="103.5,396.4 103.5,9.8 79.5,9.8 79.5,89.8 52,89.8 52,108.8 79.5,108.8 79.5,223.8 52,223.8 52,242.8 79.5,242.8 79.5,357.8 52,357.8 52,376.8 79.5,376.8 79.5,396.4 79,396.4 79,420.5 152.5,420.5 152.5,446.3 171.5,446.3 171.5,420.5 286.5,420.5 286.5,446.3 305.5,446.3 305.5,420.5 420.5,420.5 420.5,446.3 439.5,446.3 439.5,420.5 488,420.5 488,396.4 "/></svg>
