<?xml version="1.0" encoding="utf-8"?>
<!-- Generator: Adobe Illustrator 27.4.0, SVG Export Plug-In . SVG Version: 6.00 Build 0)  -->
<svg version="1.1" id="Camada_1" xmlns="http://www.w3.org/2000/svg" xmlns:xlink="http://www.w3.org/1999/xlink" x="0px" y="0px" viewBox="0 0 1280 1280" style="enable-background:new 0 0 1280 1280;" xml:space="preserve"><path d="M1247.7,595.5c-1-36.4-18.4-65.4-44.9-88.4c-31.3-27.2-69.4-34.9-110.4-34.7c-37.2,0.2-74.4,0.3-111.5,0.4c-2.3-55.1-1.5-170.3,0.9-192.3c1.6-14.8,4.4-29.3,8.7-43.4c8.2-26.5,22-51.6,44.7-74.8c12.9-13.1,21.5-79.5-40.8-76.3C944.3,85,894.1,84.2,844,83.8v-0.4c-50.1,0.4-100.3,1.2-150.4,2.3c-62.3-3.2-53.7,63.2-40.8,76.3c22.7,23.1,36.5,48.2,44.7,74.8c4.3,14.1,7.1,28.6,8.7,43.4c2.4,22,3.2,137.8,0.9,192.7c-2.5,0-5.1,0-7.6,0c-37.1,0.1-64.9-15.7-83.1-47.4c-17.7-30.8-33.3-62.8-51.5-93.3c-8.8-14.7-19.4-29.3-32.3-40.4c-29-24.8-63.8-35.2-102.1-34.8c-47.4,0.5-94.8,0.1-142.2,0.1c-36.1,0-72.3,0-108.4,0c-43.7,0-82,14.8-111,47.1c-22.1,24.5-33.7,54.5-33.6,88.9c0.4,238.4,0.4,476.8,0,715.2c-0.1,32.7,12,60,30,85.7c1.3,1.9,2.8,3.7,4.5,5.4c32.5,31.6,71.3,45.7,116.7,45.5c151.6-0.6,303.1-0.2,454.7-0.2c152.3,0,304.7,0,457-0.1c11.2,0,22.6-0.4,33.6-2.3c52.3-9.1,90.2-37.4,109.2-87.4c5.5-14.4,6.8-31.1,6.8-46.8c0.5-151.8,0.3-303.6,0.3-455.5C1247.9,633.6,1248.2,614.5,1247.7,595.5z M724,129h106h29h106c0,0,14-4,13,21s-38,66-42,92c-2.8,18.5-1.6,154-0.7,230.9l0,0c0,0.3,0,0.6,0,0.9c0,0.6,0,1.2,0,1.8c0,1.4,0,2.7,0,4c0,1.1,0,2.2,0,3.2c0,0.2,0,0.3,0,0.5c0,1.4,0,2.8,0.1,4.2c0,0.2,0,0.3,0,0.5c0,0.6,0,1.2,0,1.8c0,0,0,0.1,0,0.1c0,1.4,0,2.8,0.1,4.1c0,0.2,0,0.4,0,0.7c0,1.2,0,2.3,0,3.4c0,0.4,0,0.7,0,1.1c0,0.3,0,0.6,0,0.8c0,0.3,0,0.5,0,0.8c0,1.1,0,2.1,0,3.1c0,0.1,0,0.3,0,0.4c0,0.5,0,1,0,1.4c0,0.1,0,0.3,0,0.4c0,0.4,0,0.8,0,1.3c0,0.2,0,0.4,0,0.6c0,0.4,0,0.7,0,1.1c0,0.2,0,0.4,0,0.6c0,0.3,0,0.5,0,0.8c0,1.3,0,2.6,0.1,3.8c0,0.8,0,1.5,0,2.2c0,0,0,0,0,0.1c0,0.4,0,0.8,0,1.1c0,0.1,0,0.2,0,0.3c0,0.1,0,0.2,0,0.3c0,1.2,0,2.2,0,3.1c0,0.4,0,0.8,0,1.2c0,0,0,0.1,0,0.1c0,0.6,0,1.2,0,1.6c0,0.2,0,0.4,0,0.6l0,0c0,0.5,0,0.8,0,0.8L1063,661l15,25l-196,14.8l-37.5,2.4l-37.8-2.4L611,686l15-25l127-135.3c0,0,0-0.3,0-0.9l0,0c0-0.2,0-0.5,0-0.7c0-0.2,0-0.4,0-0.7c0-0.2,0-0.5,0-0.8c0-0.2,0-0.5,0-0.7c0-1,0-2.2,0.1-3.6c0-1,0-2,0-3.2c0-0.1,0-0.2,0-0.2c0-0.2,0-0.4,0-0.6c0-0.8,0-1.7,0-2.6c0,0,0,0,0-0.1c0-0.4,0-0.9,0-1.3c0-0.2,0-0.3,0-0.5c0-0.4,0-0.7,0-1.1c0-1.4,0-2.8,0.1-4.3c0-0.8,0-1.6,0-2.5c0-1,0-2.1,0-3.2c0-0.3,0-0.5,0-0.8c0-0.3,0-0.6,0-1c0-0.3,0-0.6,0-0.9c0.1-5.4,0.1-11.4,0.2-17.8c0-0.2,0-0.5,0-0.7c0.9-75.9,2.2-216.8-0.7-235.6c-4-26-41-67-42-92S724,129,724,129zM169.4,310.4c68.7-0.9,137.5-0.5,206.3-0.6c20.2,0,40.4-0.2,60.6,0c35.6,0.5,62,16,78.9,47.7c13.4,25.2,27.2,50.2,41.3,75c7.4,13,15.7,25.4,24.9,40.1c-164.1,0-325.6,0-488.1,0c-0.4-3.1-1.1-6-1.1-8.9c-0.1-24.5,0.5-48.9-0.2-73.4C90.7,347.2,130,311,169.4,310.4z M1190.9,1122.1c-5,40.1-36.2,67.8-79.5,70.7c-4.6,0.3-9.3,0.3-14,0.3c-303.9,0-607.8,0-911.7,0.1c-24,0-46.5-4.4-65-20.5c-18.9-16.4-29-36.9-29-62.9C92.2,918.3,92,726.9,92,535.5c0-3,0.3-6.1,0.5-10.8c5.8,0,10.5,0,15.1,0c182.3,0,364.5,0,546.8,0c14.1,0,28.1,0,42.2,0c-3.7,8-8.3,15.4-13.7,21.4c-37,41-79.4,77.3-116.9,117.9c-13.7,14.9-20,36.6-29.7,55.2C557,727.9,738.4,743,809,741.9c10.3,146,25.2,284.9,35,423.7v0.4c9.8-138.8,24.7-277.7,35-423.7c70.6,1.1,252-13.9,272.8-22.6c-9.7-18.6-15.9-40.4-29.7-55.2c-37.6-40.6-79.9-76.9-116.9-117.9c-5.5-6.1-10.2-13.6-13.9-21.7c36.9,0,73.8,0,110.7-0.1c28.5-0.1,52.6,9.4,71.7,29.7c13.6,14.4,17.8,33.2,17.8,52.8c0,69.1,0,138.2,0,207.3c0,97.1,0,194.1,0,291.2C1191.5,1111.2,1191.5,1116.7,1190.9,1122.1z"/></svg>
