<svg version="1.1" id="Camada_1" xmlns="http://www.w3.org/2000/svg" xmlns:xlink="http://www.w3.org/1999/xlink" x="0px" y="0px" viewBox="0 0 560.1 454.2" style="enable-background:new 0 0 560.1 454.2;" xml:space="preserve"><path d="M285.9,14C166.7,14,70,110.6,70,229.8c0,45.8,14.3,88.3,38.7,123.3c-4.5,7-7.1,15.3-7.1,24.2c0,24.9,20.2,45.1,45.1,45.1c9.9,0,19-3.2,26.4-8.5c32.8,20.1,71.4,31.8,112.7,31.8c119.2,0,215.8-96.6,215.8-215.8S405.1,14,285.9,14z M474.7,216.8h-26.2c-3.2-15.1-14.6-27.2-29.3-31.5c-6.4-19.1-16.7-36.4-30.1-50.8l32-37.1C451.7,128.6,471.5,170.4,474.7,216.8z M146.7,332.3c-6.3,0-12.2,1.3-17.7,3.6c-18.2-26.9-29.7-58.7-32.1-93h48.9c6.2,67.2,59.7,120.7,126.9,126.9v48.9c-30.4-2.1-58.9-11.3-83.7-26.1c1.7-4.8,2.6-9.9,2.6-15.2C191.8,352.5,171.6,332.3,146.7,332.3z M228,135.3c0,14.4-11.7,26.1-26.1,26.1c-14.4,0-26.1-11.7-26.1-26.1c0-14.4,11.7-26.1,26.1-26.1C216.3,109.2,228,120.9,228,135.3z M187.5,174.4c4.5,1.6,9.3,2.5,14.3,2.5c23,0,41.7-18.7,41.7-41.7c0-3.3-0.4-6.6-1.1-9.7c9.6-4,19.8-6.7,30.5-7.9v45.7c-26.1,5.3-46.4,26.7-49.9,53.5h-49.2C175.5,201.6,180.3,187.2,187.5,174.4z M366.3,216.8H348c-1.2-8.9-4.2-17.3-8.8-24.7l31.6-36.6c8.2,9.3,14.8,20,19.6,31.6C378.2,192.6,369.1,203.5,366.3,216.8z M321.9,173.7c-6.8-4.8-14.6-8.3-23-10.1v-45.9c19.8,2.3,38,9.7,53.4,20.8L321.9,173.7z M298.9,180.6c4.4,1.3,8.4,3.2,12.2,5.7l-12.2,14.1V180.6z M272.9,216.8h-33.2c3.2-17.6,16.2-31.7,33.2-36.5V216.8z M272.9,242.8v27.2c-13.9-3.9-25.1-14.1-30.5-27.2H272.9z M298.9,242.8h29.8c-5.3,12.9-16.2,23-29.8,27V242.8z M317.9,216.8l9.8-11.3c1.7,3.6,2.9,7.3,3.6,11.3H317.9z M370.3,117.6c-20.3-15.3-44.8-25.2-71.5-27.6V41c38.9,2.6,74.5,17,103.4,39.6L370.3,117.6z M224.9,242.8c6.5,22.3,24.9,39.6,48,44.2V342c-52-6-93.2-47.2-99.1-99.1H224.9z M298.9,286.9c22.7-4.9,40.8-22,47.2-44.1H369c4.6,10.4,13.3,18.5,24.1,22.4c-13.5,41.1-50,71.7-94.2,76.8V286.9z M407.4,252c-14.6,0-26.4-11.8-26.4-26.4c0-14.6,11.8-26.4,26.4-26.4c14.6,0,26.4,11.8,26.4,26.4C433.7,240.2,421.9,252,407.4,252z M272.9,41v48.9c-16.2,1.5-31.6,5.7-45.8,12.3c-7-5.4-15.8-8.6-25.3-8.6c-23,0-41.7,18.7-41.7,41.7c0,7.8,2.1,15,5.8,21.3c-10.9,17.9-18,38.3-20,60.3H97C103.4,122.7,178.7,47.4,272.9,41z M146.7,405.6c-15.6,0-28.3-12.7-28.3-28.3c0-15.6,12.7-28.3,28.3-28.3c15.6,0,28.3,12.7,28.3,28.3C175,393,162.3,405.6,146.7,405.6z M298.9,418.7v-48.9c59.6-5.5,108.4-48.2,123-104.6c11.3-4.2,20.3-13,24.6-24.2c-0.2,0.6-0.4,1.3-0.6,1.9h28.8C468.3,337,393,412.3,298.9,418.7z"/></svg>
