<svg version="1.1" id="Camada_1" xmlns="http://www.w3.org/2000/svg" xmlns:xlink="http://www.w3.org/1999/xlink" x="0px" y="0px" viewBox="0 0 560.1 454.2" style="enable-background:new 0 0 560.1 454.2;" xml:space="preserve"> <g><rect x="11.7" y="26.8" width="25.7" height="86"/><rect x="11.7" y="196.4" width="25.7" height="79.5"/><rect x="11.7" y="374.6" width="25.7" height="59.9"/><rect x="519.4" y="26.8" width="25.7" height="86"/><rect x="519.4" y="138.8" width="25.7" height="79.5"/><rect x="519.4" y="287.6" width="25.7" height="76.5"/><path d="M496,337.8l-0.6-30c-0.2,0-0.4,0-0.6,0c-14.1,0-26-13.4-39.9-29c-1.6-1.8-3.2-3.5-4.7-5.3c10.2-23.6,17.8-47.2,23.2-66.1c3.3-11.4,20.4-10.7,20.5-10.7l-0.9-29.9c-13.7-1-36.3,4.4-43.9,31.1c-4.6,16.2-11,36-19.2,56c-4.5-3.4-9.1-6.4-14.2-8.7c-18.5-8.2-37.2-4.7-57.3,10.7c-15.2,10.5-29.6,32.5-46.1,57.9c-4.3,6.7-8.8,13.5-13.3,20.2c-7.8-7.4-14.4-17.7-20.3-31.4c-6.3-14.7-11.9-33.3-17.1-54.8c19.8-22.6,34.3-51.7,47.2-77.7c8.4-16.8,16.3-32.7,24.7-45.3c32.7-49.1,92.7-47.2,125.5-41.8c17.5,2.9,33.3,1.6,34,1.5V54.6c-0.2,0-15.7,1.2-30.4-1.3c-38.3-6.4-108.7-7.9-149.3,53c-9.4,14.2-17.8,30.9-26.6,48.6c-10.2,20.4-20.5,41.1-32.8,58.4c-3.1-14.9-6.2-30.7-9.2-47c-8.4-44.4-30.7-76.6-66.4-95.7c-29.3-15.7-61.7-19-83.8-19l0,0c-16.8,0-29.1,0.1-29.2,0.1l0.3,30c0.1,0,12.2-0.1,28.9-0.1l0,0c19.5,0,48.1,2.8,73.2,16.3c28,15,45.5,40.2,52.1,75c4.3,22.8,8.5,44.5,13,64.5c-15,13-33.1,20.7-56.1,19.2c-33-2-45.4-3.6-87.7-22.4c-12.2-5.5-23.5-5.6-24.7-5.6l-0.1,30c0.1,0,7.8,0.1,15.8,3.7c44.2,19.7,59.6,22.1,95.4,24.3c2.3,0.1,4.7,0.2,6.9,0.2c23,0,41.8-7.3,57.8-18.9c4.9,18.3,10,34.6,15.9,48.3c7.6,17.4,16.2,30.8,26.8,40.9c-18.8,24.5-39.4,44.5-63,47.7c-50.3,6.8-103.6-2.1-131-8.1C75.6,393.8,64.5,394,64,394l0.5,30c0.1,0,9.1-0.1,19.8,2.2c21.3,4.6,57.8,11,97.1,11c13.6,0,27.6-0.8,41.4-2.6c33.1-4.5,59.9-31.6,82.6-62.2c5.7,2.6,11.9,4.6,18.5,6c5.5,1.2,10.9,1.8,16.3,1.8c14.6,0,28.7-4.3,42.1-12.9c15.2-9.7,29.6-25.1,42.8-45.6c4.4-6.8,8.5-13.9,12.3-21.2c15.6,17.5,33.1,37.2,57.4,37.2C495.3,337.8,495.6,337.8,496,337.8zM404.7,303.7c-11.1,17.1-22.8,29.7-34.8,37.4c-13.3,8.5-26.9,11.2-41.5,8c-2-0.4-3.8-0.9-5.7-1.5c3.5-5.2,6.8-10.4,10.1-15.4c14.4-22.1,27.9-43,38.8-50.4l0.7-0.5c19-14.7,31.6-12.6,45.6-0.7C413.9,288.6,409.5,296.4,404.7,303.7z"/></g></svg>
