<?xml version="1.0" encoding="utf-8"?>
<!-- Generator: Adobe Illustrator 27.2.0, SVG Export Plug-In . SVG Version: 6.00 Build 0)  -->
<svg version="1.1" id="Camada_1" xmlns="http://www.w3.org/2000/svg" xmlns:xlink="http://www.w3.org/1999/xlink" x="0px" y="0px"
	 viewBox="0 0 600 600" style="enable-background:new 0 0 600 600;" xml:space="preserve">
<g>
	<path d="M99.4,3.6c-31.9,32-63.8,63.9-95.8,95.8c-1,1-2.4,1.7-3.6,2.5c0,166,0,332,0,498c149.8,0,299.3,0,448.8,0
		c0-200,0-400,0-600C333.2,0,217.6,0,102,0C101.1,1.2,100.4,2.6,99.4,3.6z M114.6,9.5C221,9.4,327.4,9.4,433.8,9.4
		c0.8,0,1.6,0.1,3,0.2c0,193.7,0,386.9,0,580.6c-142.6,0-285.2,0-428.6,0c0-1.9,0-3.9,0-6c0-155.6,0-311.2-0.1-466.9
		c0-3.8,1-6.5,3.7-9.2C43.7,76.5,75.4,44.7,107.3,13C109.1,11.2,112.1,9.5,114.6,9.5z"/>
	<path d="M480.6,75c0,2.8,0,4.9,0,7c0,151.3,0,302.7,0.2,454c0,3.3,1.5,7.3,3.6,9.8c15.3,18.2,30.9,36.2,46.4,54.3
		c6.2,0,12.5,0,18.8,0c14.7-17,29.4-34.1,44.2-51.1c1.9-2.2,4.1-4.2,6.2-6.3c0-155.9,0-311.7,0-467.6C560.4,75,520.8,75,480.6,75z
		 M580.6,545.9c-11.9,14.7-24.5,28.8-36.9,43c-1,1.1-2.2,2.1-3.7,3.4c-13.6-16-26.2-32.4-40.6-47c-7-7.1-7.3-14.1-7.3-22.5
		c0.1-142.5,0-285.1,0-427.6c0-2.5,0-5.1,0-8c32,0,63.7,0,96.3,0c0,1.9,0,4,0,6c0,146.6,0,293.3,0.1,439.9
		C588.6,539.5,583.6,542.1,580.6,545.9z"/>
	<path d="M34.9,576.6c126.4,0,252.7,0,379.1,0c7.2,0,11.4-4.1,11.4-11.3c0-8,0-16,0-24c0-168.7,0-337.5,0-506.2
		c0-7.1-4.1-11.5-10.6-11.5c-90.6,0-181.2,0-271.9,0c-6.2,0-10.5,4.5-10.5,11c0,30.3,0,60.5,0,90.8c0,2.1,0,4.2,0,7.2
		c-2.9,0-5,0-7.1,0c-30.1,0-60.2,0-90.2,0c-7.7,0-11.6,4-11.6,11.7c0,140.2,0,280.4,0,420.7C23.4,572.5,27.4,576.6,34.9,576.6z
		 M35.5,144.1c35.9,0,71.7,0,108.1,0c0-36.5,0-72.3,0-108.5c90.2,0,179.7,0,269.6,0c0,176.1,0,352.3,0,529.1c-126,0-251.7,0-377.7,0
		C35.5,424.5,35.5,284.6,35.5,144.1z"/>
	<path d="M46.1,119.7c20.9-0.3,41.7-0.1,62.6-0.1c6.7,0,10.9-4.3,10.9-11.2c0-10.3,0-20.7,0-31s-0.4-20.7,0.2-31
		c0.3-5.6-3-9.3-6.6-10.5c-4.2-1.4-9.9-2.5-14.1,1.7C78.4,58.1,57.7,78.5,37.6,99.5c-2.6,2.7-3,9.3-1.9,13.4
		C36.8,116.5,40.5,119.8,46.1,119.7z M108.5,48c0,18.7,0,39.4,0,60.4c-21,0-41.8,0-60.4,0C67.8,88.6,88.6,67.8,108.5,48z"/>
	<path d="M565.6,181.6c-16.6,0-33.2,0-49.8,0c-6.4,0-10.7,4.4-10.7,10.8c0,84.2,0,168.3,0,252.5c0,6.5,4.3,10.8,10.7,10.8
		c16.4,0,32.8,0,49.2,0c7.6,0,11.6-4,11.6-11.7c0-41.6,0-83.2,0-124.8c0-42.2,0-84.4,0-126.5C576.6,185.9,572.3,181.7,565.6,181.6z
		 M564.5,443.8c-16,0-31.9,0-48.3,0c0-83.7,0-167.2,0-251.3c16.4,0,32.1,0,48.3,0C564.5,276.3,564.5,359.9,564.5,443.8z"/>
	<path d="M567,468.8c-17.4-0.1-34.7-0.1-52.1,0c-5.1,0-9.7,4.8-9.8,10c-0.1,8.6,0,17.2,0,25.8c0,8.8-0.2,17.6,0.1,26.3
		c0.1,2.4,1.3,5.1,2.9,7c6.4,7.9,13.3,15.4,19.7,23.4c6.2,7.8,16.5,8.7,23.3,1.4c6.1-6.5,12-13.1,17.6-20c3-3.7,7.3-8,7.5-12.2
		c0.8-17.3,0.4-34.7,0.3-52.1C576.5,473.6,571.7,468.8,567,468.8z M563.9,528.2c-3.3,8.8-12.2,15.4-18.6,23c-1.5,1.7-3,3.4-5,5.6
		c-7.9-9.1-15.6-17.9-23.1-26.8c-0.8-0.9-1.3-2.5-1.3-3.7c-0.1-15.4-0.1-30.8-0.1-46.6c16.4,0,32.3,0,49,0c0,6.2,0,12.6,0,18.9
		C564.8,508.6,567.2,519.5,563.9,528.2z"/>
	<path d="M515.6,168.7c8.4,0,16.8,0,25.2,0c8.6,0,17.2,0,25.8,0c5.2,0,9.9-4.7,9.9-9.8c0.1-16.4,0-32.8,0-49.2
		c0-5.6-4.6-10.1-10.2-10.1c-17,0-34,0-51,0c-5.6,0-10.2,4.5-10.2,10.1c0,16.2,0,32.4,0,48.6C505.1,164.3,509.6,168.7,515.6,168.7z
		 M516.1,110.6c16,0,31.9,0,48.5,0c0,15.3,0,30.5,0,46.1c-16.1,0-32.1,0-48.5,0C516.1,141.4,516.1,126.2,516.1,110.6z"/>
	<path d="M340.4,216.1c-77.6,0-154.7,0-232,0c0,11.7,0,22.9,0,34.4c77.5,0,154.6,0,232,0C340.4,238.8,340.4,227.4,340.4,216.1z
		 M329,239.9c-69.7,0-139.1,0-209,0c0-3.9,0-7.9,0-12.2c69.5,0,139,0,209,0C329,232,329,235.8,329,239.9z"/>
	<path d="M108.4,401.7c77.6,0,154.7,0,231.9,0c0-11.7,0-22.9,0-34.4c-77.5,0-154.5,0-231.9,0C108.4,379.2,108.4,390.5,108.4,401.7z
		 M119.8,378.8c69.7,0,139.1,0,209,0c0,3.9,0,7.8,0,12.2c-69.5,0-139,0-209,0C119.8,386.7,119.8,382.9,119.8,378.8z"/>
	<path d="M108.5,477.9c77.4,0,154.3,0,231.8,0c0-11.9,0-23.3,0-34.6c-77.5,0-154.6,0-231.8,0C108.5,455,108.5,466.3,108.5,477.9z
		 M119.8,453.8c69.8,0,139.4,0,209.2,0c0,4.1,0,7.9,0,12.2c-69.6,0-139.2,0-209.2,0C119.8,461.8,119.8,458,119.8,453.8z"/>
	<path d="M108.3,326.2c77.7,0,154.8,0,232.1,0c0-11.7,0-22.9,0-34.3c-77.5,0-154.7,0-232.1,0C108.3,303.5,108.3,314.5,108.3,326.2z
		 M119.8,302.6c69.7,0,139.1,0,209,0c0,3.9,0,7.8,0,12.2c-69.4,0-139,0-209,0C119.8,310.6,119.8,306.7,119.8,302.6z"/>
</g>
</svg>
